<svg xmlns="http://www.w3.org/2000/svg" viewBox="0 0 28.79 28.94">
    <path
        d="M28.29,7.8a8,8,0,0,1-2.57,5.69,7.94,7.94,0,0,1-7.37,1.7,1.5,1.5,0,0,0-.69-.09,1.34,1.34,0,0,0-.68.5L7.75,26.08a6.48,6.48,0,0,1-3,2.26A3.55,3.55,0,0,1,.93,23.23,8.76,8.76,0,0,1,2.7,21.3L13.24,12a2.2,2.2,0,0,0,.48-.53,2.41,2.41,0,0,0-.05-1.67,7.74,7.74,0,0,1,1.87-7A7.74,7.74,0,0,1,22.38.61c.55.1,1.22.45,1.11,1a1.15,1.15,0,0,1-.3.52Q21.6,3.9,19.85,5.51c-.25.22-.52.51-.46.83a1,1,0,0,0,.31.47L22,9.17a1,1,0,0,0,.41.28c.3.07.57-.17.79-.39l3.42-3.52a1.09,1.09,0,0,1,.44-.33c.57-.18,1,.54,1.09,1.13A7.91,7.91,0,0,1,28.29,7.8Z"
        style="fill:none;stroke:#05475f;stroke-linecap:round;stroke-linejoin:round" />
    <polygon points="9.99 11.99 5.05 7.13 3.24 7.23 0.37 2.54 2.18 0.72 6.84 3.61 6.82 5.31 11.62 10.17 9.99 11.99"
        style="fill:#b1c1cf" />
    <path d="M22.12,17.68a8.44,8.44,0,0,1-3.47-.3L16.23,20l6.29,7.83a3.05,3.05,0,0,0,4.3,0l.58-.59a3,3,0,0,0,0-4.3Z"
        style="fill:#b1c1cf" />
</svg>
