<svg xmlns="http://www.w3.org/2000/svg" viewBox="0 0 26.32 31.85">
    <path
        d="M13.05,18.62a2,2,0,1,0-2-2v.66H9.71v-.66a2,2,0,1,0-2,2h.67v2.67a.66.66,0,0,0-.6.36L7.12,23c-.22.43.08-.06.59-.06h5.34c.51,0,.81.49.59.06L13,21.65a.65.65,0,0,0-.59-.36V18.62Zm-.67-2a.67.67,0,1,1,.67.66h-.67Zm-4,.66H7.71a.67.67,0,1,1,.67-.66Zm2.67,4H9.71V18.62h1.34Z"
        style="fill:#b1c1cf" />
    <path d="M4.74,25.06v4.19H7.88a2.1,2.1,0,1,0,4.2,0h3.14V25.06Z" style="fill:#b1c1cf" />
    <rect x="4.74" y="25.06" width="10.48" height="4.19"
        style="fill:none;stroke:#05475f;stroke-linecap:round;stroke-linejoin:round" />
    <path d="M12.08,29.25a2.1,2.1,0,1,1-4.2,0"
        style="fill:none;stroke:#05475f;stroke-linecap:round;stroke-linejoin:round" />
    <path d="M23.44,8.45a1.81,1.81,0,1,0-2.69,0H17.87V6.18a1.81,1.81,0,1,1,0-2.7V0a8.45,8.45,0,0,1,8.45,8.45Z"
        style="fill:#05475f" />
    <path
        d="M19.15,11.12H16.27a1.81,1.81,0,1,0-2.69,0H10.7V8.85a1.81,1.81,0,1,1,0-2.7V3.08c-.25,0-.51,0-.77,0A9.43,9.43,0,0,0,.5,12.47C.5,17.71,3.64,17.71,4.69,23H15.17c1-5.25,4.2-5.25,4.2-10.49A4.1,4.1,0,0,0,19.15,11.12Z"
        style="fill:none;stroke:#05475f;stroke-linecap:round;stroke-linejoin:round" />
</svg>
