<svg xmlns="http://www.w3.org/2000/svg" viewBox="0 0 25.72 25.55">
    <path d="M12.86,20.87C12.21,28.78.5,22.16.5,12.86A12.36,12.36,0,1,1,14.91,25.05"
        style="fill:none;stroke:#05475f;stroke-linecap:round;stroke-miterlimit:10" />
    <path
        d="M10,10.43h5.8a1.75,1.75,0,0,1,1.75,1.75v2.4a4.66,4.66,0,0,1-4.66,4.66h0a4.66,4.66,0,0,1-4.66-4.66v-2.4A1.75,1.75,0,0,1,10,10.43Z"
        style="fill:#05475f" />
    <path
        d="M8,10.43h9.66a.76.76,0,0,1,.76.76v0a1.38,1.38,0,0,1-1.38,1.38H8.65a1.38,1.38,0,0,1-1.38-1.38v0A.76.76,0,0,1,8,10.43Z"
        style="fill:#05475f" />
    <path
        d="M11.64,18.7H14a0,0,0,0,1,0,0v1.19a1.19,1.19,0,0,1-1.19,1.19h0a1.19,1.19,0,0,1-1.19-1.19V18.7A0,0,0,0,1,11.64,18.7Z"
        style="fill:#05475f" />
    <path d="M15.1,6.11h0A.87.87,0,0,1,16,7v3.83a0,0,0,0,1,0,0H14.22a0,0,0,0,1,0,0V7A.87.87,0,0,1,15.1,6.11Z"
        style="fill:#05475f" />
    <path d="M10.6,6.11h0a.87.87,0,0,1,.87.87v3.83a0,0,0,0,1,0,0H9.72a0,0,0,0,1,0,0V7A.87.87,0,0,1,10.6,6.11Z"
        style="fill:#05475f" />
</svg>
