<?xml version="1.0" encoding="utf-8"?>
<!-- Generator: Adobe Illustrator 26.3.1, SVG Export Plug-In . SVG Version: 6.00 Build 0)  -->
<svg version="1.1" id="Layer_1" xmlns="http://www.w3.org/2000/svg" xmlns:xlink="http://www.w3.org/1999/xlink" x="0px"
    y="0px" viewBox="0 0 36.7 23.6" style="enable-background:new 0 0 36.7 23.6;" xml:space="preserve">
    <style type="text/css">
        .st0 {
            fill: #B1C1CF;
            stroke: #05475F;
            stroke-width: 0.6;
            stroke-linecap: round;
            stroke-miterlimit: 10;
        }

        .st1 {
            fill: none;
            stroke: #05475F;
            stroke-width: 0.6;
            stroke-linecap: round;
            stroke-miterlimit: 10;
        }

        .st2 {
            fill: none;
            stroke: #05475F;
            stroke-linecap: round;
            stroke-miterlimit: 10;
        }

        .st3 {
            fill: #05475F;
        }

    </style>
    <path class="st0" d="M28.4,8.9v0.3c0,0.3-0.3,0.6-0.6,0.6h-1.8c-0.3,0-0.6-0.3-0.6-0.6V8.9c0-0.3,0.3-0.6,0.6-0.6h1.8
	C28.2,8.3,28.4,8.6,28.4,8.9z" />
    <ellipse class="st1" cx="26.9" cy="6.7" rx="4.6" ry="5.2" />
    <path class="st1" d="M32.5,8c-0.7,1.3-2.1,1.4-4,1.4" />
    <path class="st0" d="M32.3,4.7h0.3c0.3,0,0.6,0.3,0.6,0.6v2c0,0.3-0.3,0.6-0.6,0.6h-0.3c-0.3,0-0.6-0.3-0.6-0.6v-2
	C31.8,5,32,4.7,32.3,4.7z" />
    <path class="st0" d="M21.2,4.7h0.3c0.3,0,0.6,0.3,0.6,0.6v2c0,0.3-0.3,0.6-0.6,0.6h-0.3c-0.3,0-0.6-0.3-0.6-0.6v-2
	C20.7,5,20.9,4.7,21.2,4.7z" />
    <path class="st1" d="M21.4,4.6c0.7-2.5,3-4.3,5.6-4.3c2.6,0.1,4.8,1.8,5.6,4.3" />
    <path class="st2"
        d="M27.5,14.1v4.4c0,1.3-0.9,2.4-2,2.4H5.9c-1.1,0-2.1-1.1-2.1-2.4V4.9c0-1.3,0.9-2.4,2.1-2.4h13.5" />
    <path class="st3" d="M19.4,21.1c0,0.3-0.3,0.6-0.6,0.6h-6.3c-0.3,0-0.5-0.3-0.6-0.6H0v0.7c0,0.9,0.6,1.7,1.4,1.8h28.8
	c0.8-0.1,1.4-0.9,1.4-1.8v-0.7H19.4z" />
</svg>
