<svg xmlns="http://www.w3.org/2000/svg" viewBox="0 0 26.5 28.78">
    <path
        d="M22.78,11.39v-1.2A10.11,10.11,0,0,0,21.22,4.8l-.87-1.2a10.18,10.18,0,0,0-18,6.59v2.27L.05,17.74a.6.6,0,0,0,.55.84H2.4v3.6a2.4,2.4,0,0,0,2.4,2.4h3v3.6a.6.6,0,0,0,.6.6H18a.6.6,0,0,0,.6-.6c0-2.42-.13-4.1.82-6.6l.52-1.2c.79-1.58,2.55-3.67,2.82-7.79Zm-3.2,7.17a15.26,15.26,0,0,0-1,1.82l-.46,1.2a16.21,16.21,0,0,0-.75,6H9V24a.6.6,0,0,0-.6-.6H4.8a1.2,1.2,0,0,1-1.2-1.2V18a.59.59,0,0,0-.6-.59H1.52c2.18-4.91,2.08-4.62,2.08-4.8v-2.4A9,9,0,0,1,18.68,3.6l1.09,1.2a8.94,8.94,0,0,1,1.81,5.39v1.2l0,1.2A12.74,12.74,0,0,1,19.58,18.56Z"
        style="fill:#05475f" />
    <path
        d="M21.4,12.43l.91,1.12a.3.3,0,0,0,.43,0l1.45-1.17a.3.3,0,0,0,0-.43l-.88-1.1a.3.3,0,0,1,0-.37,5.58,5.58,0,0,0,.32-.52A.3.3,0,0,1,24,9.85l1.41.28a.31.31,0,0,0,.36-.24l.36-1.83a.31.31,0,0,0-.25-.36l-1.38-.28a.31.31,0,0,1-.24-.28q0-.3-.09-.6a.31.31,0,0,1,.15-.34l1.25-.69a.31.31,0,0,0,.13-.42l-.91-1.64a.32.32,0,0,0-.42-.12L23.14,4A.3.3,0,0,1,22.77,4a5.72,5.72,0,0,0-.46-.4.33.33,0,0,1-.1-.36l.52-1.34a.31.31,0,0,0-.18-.4L20.82.78a.31.31,0,0,0-.4.17l-.51,1.31a.32.32,0,0,1-.32.2c-.2,0-.4,0-.6,0a.33.33,0,0,1-.31-.21L18.22.87a.31.31,0,0,0-.4-.19l-1.75.6a.31.31,0,0,0-.2.39L16.33,3a.3.3,0,0,1-.12.36,4.25,4.25,0,0,0-.47.37.32.32,0,0,1-.37,0l-1.12-.68c-.25-.16-.45-.11-.53,0l-1,1.59a.3.3,0,0,0,.1.42l1.21.74a.31.31,0,0,1,.14.34,4.29,4.29,0,0,0-.13.6.31.31,0,0,1-.25.26l-1.42.22a.32.32,0,0,0-.26.35l.29,1.85a.31.31,0,0,0,.35.25l1.39-.21a.32.32,0,0,1,.33.17c.05.11.1.22.16.33l.13.24a.3.3,0,0,1,0,.35l-.94,1.08a.3.3,0,0,0,0,.43l1.4,1.23a.31.31,0,0,0,.44,0l.92-1.06a.32.32,0,0,1,.37-.07,3.83,3.83,0,0,0,.56.22.31.31,0,0,1,.21.3l0,1.44a.31.31,0,0,0,.3.32l1.86,0a.3.3,0,0,0,.31-.3l0-1.41a.3.3,0,0,1,.23-.29,4.76,4.76,0,0,0,.57-.19A.31.31,0,0,1,21.4,12.43Z"
        style="fill:#b1c1cf;stroke:#05475f;stroke-miterlimit:10;stroke-width:0.75px" />
    <ellipse cx="19.24" cy="7.53" rx="3.46" ry="3.48" transform="translate(-1.24 10.23) rotate(-28.87)"
        style="fill:#fff;stroke:#05475f;stroke-miterlimit:10;stroke-width:0.75px" />
</svg>
