  0
SECTION
  2
HEADER
  9
$ACADVER
  1
AC1014
  9
$HANDSEED
  5
FFFF
  9
$MEASUREMENT
 70
     1
  0
ENDSEC
  0
SECTION
  2
TABLES
  0
TABLE
  2
VPORT
  5
8
330
0
100
AcDbSymbolTable
 70
     4
  0
VPORT
  5
2E
330
8
100
AcDbSymbolTableRecord
100
AcDbViewportTableRecord
  2
*ACTIVE
 70
     0
 10
0.0
 20
0.0
 11
1.0
 21
1.0
 12
210.0
 22
148.5
 13
0.0
 23
0.0
 14
10.0
 24
10.0
 15
10.0
 25
10.0
 16
0.0
 26
0.0
 36
1.0
 17
0.0
 27
0.0
 37
0.0
 40
341.0
 41
1.24
 42
50.0
 43
0.0
 44
0.0
 50
0.0
 51
0.0
 71
     0
 72
   100
 73
     1
 74
     3
 75
     0
 76
     0
 77
     0
 78
     0
  0
ENDTAB
  0
TABLE
  2
LTYPE
  5
5
330
0
100
AcDbSymbolTable
 70
     1
  0
LTYPE
  5
14
330
5
100
AcDbSymbolTableRecord
100
AcDbLinetypeTableRecord
  2
BYBLOCK
 70
     0
  3

 72
    65
 73
     0
 40
0.0
  0
LTYPE
  5
15
330
5
100
AcDbSymbolTableRecord
100
AcDbLinetypeTableRecord
  2
BYLAYER
 70
     0
  3

 72
    65
 73
     0
 40
0.0
  0
LTYPE
  5
16
330
5
100
AcDbSymbolTableRecord
100
AcDbLinetypeTableRecord
  2
CONTINUOUS
 70
     0
  3
Solid line
 72
    65
 73
     0
 40
0.0
  0
ENDTAB
  0
TABLE
  2
LAYER
  5
2
100
AcDbSymbolTable
 70
2
  0
LAYER
  5
50
100
AcDbSymbolTableRecord
100
AcDbLayerTableRecord
  2
0
 70
0
  6
CONTINUOUS
  0
LAYER
  5
51
100
AcDbSymbolTableRecord
100
AcDbLayerTableRecord
  2
Layer_1
 70
0
  6
CONTINUOUS
  0
ENDTAB
  0
TABLE
  2
STYLE
  5
3
330
0
100
AcDbSymbolTable
 70
     1
  0
STYLE
  5
11
330
3
100
AcDbSymbolTableRecord
100
AcDbTextStyleTableRecord
  2
STANDARD
 70
     0
 40
0.0
 41
1.0
 50
0.0
 71
     0
 42
2.5
  3
txt
  4

  0
ENDTAB
  0
TABLE
  2
VIEW
  5
6
330
0
100
AcDbSymbolTable
 70
     0
  0
ENDTAB
  0
TABLE
  2
UCS
  5
7
330
0
100
AcDbSymbolTable
 70
     0
  0
ENDTAB
  0
TABLE
  2
APPID
  5
9
330
0
100
AcDbSymbolTable
 70
     2
  0
APPID
  5
12
330
9
100
AcDbSymbolTableRecord
100
AcDbRegAppTableRecord
  2
ACAD
 70
     0
  0
ENDTAB
  0
TABLE
  2
DIMSTYLE
  5
A
330
0
100
AcDbSymbolTable
 70
     1
  0
DIMSTYLE
105
27
330
A
100
AcDbSymbolTableRecord
100
AcDbDimStyleTableRecord
  2
ISO-25
 70
     0
  3

  4

  5

  6

  7

 40
1.0
 41
2.5
 42
0.625
 43
3.75
 44
1.25
 45
0.0
 46
0.0
 47
0.0
 48
0.0
140
2.5
141
2.5
142
0.0
143
0.03937007874016
144
1.0
145
0.0
146
1.0
147
0.625
 71
     0
 72
     0
 73
     0
 74
     0
 75
     0
 76
     0
 77
     1
 78
     8
170
     0
171
     3
172
     1
173
     0
174
     0
175
     0
176
     0
177
     0
178
     0
270
     2
271
     2
272
     2
273
     2
274
     3
340
11
275
     0
280
     0
281
     0
282
     0
283
     0
284
     8
285
     0
286
     0
287
     3
288
     0
  0
ENDTAB
  0
TABLE
  2
BLOCK_RECORD
  5
1
330
0
100
AcDbSymbolTable
 70
     1
  0
BLOCK_RECORD
  5
1F
330
1
100
AcDbSymbolTableRecord
100
AcDbBlockTableRecord
  2
*MODEL_SPACE
  0
BLOCK_RECORD
  5
1B
330
1
100
AcDbSymbolTableRecord
100
AcDbBlockTableRecord
  2
*PAPER_SPACE
  0
ENDTAB
  0
ENDSEC
  0
SECTION
  2
BLOCKS
  0
BLOCK
  5
20
330
1F
100
AcDbEntity
  8
0
100
AcDbBlockBegin
  2
*MODEL_SPACE
 70
     0
 10
0.0
 20
0.0
 30
0.0
  3
*MODEL_SPACE
  1

  0
ENDBLK
  5
21
330
1F
100
AcDbEntity
  8
0
100
AcDbBlockEnd
  0
BLOCK
  5
1C
330
1B
100
AcDbEntity
 67
     1
  8
0
100
AcDbBlockBegin
  2
*PAPER_SPACE
  1

  0
ENDBLK
  5
1D
330
1B
100
AcDbEntity
 67
     1
  8
0
100
AcDbBlockEnd
  0
ENDSEC
  0
SECTION
  2
ENTITIES
  0
LWPOLYLINE
  5
100
100
AcDbEntity
  8
Layer_1
 62
7
100
AcDbPolyline
 90
4
 70
1
 10
3.474504
 20
234.458931
 30
0.0
 10
74.790918
 20
234.458931
 30
0.0
 10
74.790918
 20
184.458931
 30
0.0
 10
3.474504
 20
184.458931
 30
0.0
  0
LWPOLYLINE
  5
101
100
AcDbEntity
  8
Layer_1
 62
7
100
AcDbPolyline
 90
17
 70
0
 10
5.000000
 20
187.000000
 30
0.0
 10
15.000000
 20
197.000000
 30
0.0
 10
25.000000
 20
187.000000
 30
0.0
 10
33.000000
 20
197.000000
 30
0.0
 10
41.000000
 20
187.000000
 30
0.0
 10
46.000000
 20
197.000000
 30
0.0
 10
51.000000
 20
187.000000
 30
0.0
 10
55.000000
 20
197.000000
 30
0.0
 10
59.000000
 20
187.000000
 30
0.0
 10
62.000000
 20
197.000000
 30
0.0
 10
65.000000
 20
187.000000
 30
0.0
 10
67.000000
 20
197.000000
 30
0.0
 10
69.000000
 20
187.000000
 30
0.0
 10
70.000000
 20
197.000000
 30
0.0
 10
71.000000
 20
187.000000
 30
0.0
 10
71.500000
 20
197.000000
 30
0.0
 10
72.000000
 20
187.000000
 30
0.0
  0
SPLINE
  5
102
100
AcDbEntity
  8
Layer_1
 62
7
100
AcDbSpline
 70
8
 71
3
 72
8
 73
4
 74
0
 40
0
 40
0
 40
0
 40
0
 40
1
 40
1
 40
1
 40
1
 10
24.346625
 20
215.804263
 30
0.0
 10
24.531203
 20
215.754053
 30
0.0
 10
24.595939
 20
215.534607
 30
0.0
 10
24.536674
 20
215.368714
 30
0.0
  0
SPLINE
  5
103
100
AcDbEntity
  8
Layer_1
 62
7
100
AcDbSpline
 70
8
 71
3
 72
8
 73
4
 74
0
 40
0
 40
0
 40
0
 40
0
 40
1
 40
1
 40
1
 40
1
 10
24.536674
 20
215.368714
 30
0.0
 10
24.440244
 20
215.098784
 30
0.0
 10
24.112678
 20
215.009658
 30
0.0
 10
23.863820
 20
215.112701
 30
0.0
  0
SPLINE
  5
104
100
AcDbEntity
  8
Layer_1
 62
7
100
AcDbSpline
 70
8
 71
3
 72
8
 73
4
 74
0
 40
0
 40
0
 40
0
 40
0
 40
1
 40
1
 40
1
 40
1
 10
23.863820
 20
215.112701
 30
0.0
 10
23.494527
 20
215.265613
 30
0.0
 10
23.377451
 20
215.722088
 30
0.0
 10
23.534793
 20
216.068164
 30
0.0
  0
SPLINE
  5
105
100
AcDbEntity
  8
Layer_1
 62
7
100
AcDbSpline
 70
8
 71
3
 72
8
 73
4
 74
0
 40
0
 40
0
 40
0
 40
0
 40
1
 40
1
 40
1
 40
1
 10
23.534793
 20
216.068164
 30
0.0
 10
23.754051
 20
216.550423
 30
0.0
 10
24.359360
 20
216.698849
 30
0.0
 10
24.816392
 20
216.477150
 30
0.0
  0
SPLINE
  5
106
100
AcDbEntity
  8
Layer_1
 62
7
100
AcDbSpline
 70
8
 71
3
 72
8
 73
4
 74
0
 40
0
 40
0
 40
0
 40
0
 40
1
 40
1
 40
1
 40
1
 10
24.816392
 20
216.477150
 30
0.0
 10
25.424849
 20
216.181998
 30
0.0
 10
25.607916
 20
215.408619
 30
0.0
 10
25.312172
 20
214.827311
 30
0.0
  0
SPLINE
  5
107
100
AcDbEntity
  8
Layer_1
 62
7
100
AcDbSpline
 70
8
 71
3
 72
8
 73
4
 74
0
 40
0
 40
0
 40
0
 40
0
 40
1
 40
1
 40
1
 40
1
 10
25.312172
 20
214.827311
 30
0.0
 10
24.931846
 20
214.079749
 30
0.0
 10
23.971722
 20
213.858836
 30
0.0
 10
23.253168
 20
214.238012
 30
0.0
  0
SPLINE
  5
108
100
AcDbEntity
  8
Layer_1
 62
7
100
AcDbSpline
 70
8
 71
3
 72
8
 73
4
 74
0
 40
0
 40
0
 40
0
 40
0
 40
1
 40
1
 40
1
 40
1
 10
23.253168
 20
214.238012
 30
0.0
 10
22.353884
 20
214.712559
 30
0.0
 10
22.091990
 20
215.877632
 30
0.0
 10
22.563730
 20
216.746098
 30
0.0
  0
SPLINE
  5
109
100
AcDbEntity
  8
Layer_1
 62
7
100
AcDbSpline
 70
8
 71
3
 72
8
 73
4
 74
0
 40
0
 40
0
 40
0
 40
0
 40
1
 40
1
 40
1
 40
1
 10
22.563730
 20
216.746098
 30
0.0
 10
23.141341
 20
217.809470
 30
0.0
 10
24.529162
 20
218.115420
 30
0.0
 10
25.559943
 20
217.542201
 30
0.0
  0
SPLINE
  5
10a
100
AcDbEntity
  8
Layer_1
 62
7
100
AcDbSpline
 70
8
 71
3
 72
8
 73
4
 74
0
 40
0
 40
0
 40
0
 40
0
 40
1
 40
1
 40
1
 40
1
 10
25.559943
 20
217.542201
 30
0.0
 10
26.799540
 20
216.852861
 30
0.0
 10
27.152564
 20
215.224852
 30
0.0
 10
26.469146
 20
214.019585
 30
0.0
  0
SPLINE
  5
10b
100
AcDbEntity
  8
Layer_1
 62
7
100
AcDbSpline
 70
8
 71
3
 72
8
 73
4
 74
0
 40
0
 40
0
 40
0
 40
0
 40
1
 40
1
 40
1
 40
1
 10
26.469146
 20
214.019585
 30
0.0
 10
25.659572
 20
212.591831
 30
0.0
 10
23.774249
 20
212.188760
 30
0.0
 10
22.382536
 20
212.990931
 30
0.0
  0
SPLINE
  5
10c
100
AcDbEntity
  8
Layer_1
 62
7
100
AcDbSpline
 70
8
 71
3
 72
8
 73
4
 74
0
 40
0
 40
0
 40
0
 40
0
 40
1
 40
1
 40
1
 40
1
 10
22.382536
 20
212.990931
 30
0.0
 10
20.754877
 20
213.929100
 30
0.0
 10
20.298833
 20
216.088577
 30
0.0
 10
21.228160
 20
217.678508
 30
0.0
  0
SPLINE
  5
10d
100
AcDbEntity
  8
Layer_1
 62
7
100
AcDbSpline
 70
8
 71
3
 72
8
 73
4
 74
0
 40
0
 40
0
 40
0
 40
0
 40
1
 40
1
 40
1
 40
1
 10
21.228160
 20
217.678508
 30
0.0
 10
22.303151
 20
219.517647
 30
0.0
 10
24.753366
 20
220.029553
 30
0.0
 10
26.553114
 20
218.964804
 30
0.0
  0
SPLINE
  5
10e
100
AcDbEntity
  8
Layer_1
 62
7
100
AcDbSpline
 70
8
 71
3
 72
8
 73
4
 74
0
 40
0
 40
0
 40
0
 40
0
 40
1
 40
1
 40
1
 40
1
 10
26.553114
 20
218.964804
 30
0.0
 10
28.615154
 20
217.744882
 30
0.0
 10
29.185770
 20
214.987582
 30
0.0
 10
27.977460
 20
212.966577
 30
0.0
  0
SPLINE
  5
10f
100
AcDbEntity
  8
Layer_1
 62
7
100
AcDbSpline
 70
8
 71
3
 72
8
 73
4
 74
0
 40
0
 40
0
 40
0
 40
0
 40
1
 40
1
 40
1
 40
1
 10
27.977460
 20
212.966577
 30
0.0
 10
26.604606
 20
210.670359
 30
0.0
 10
23.524092
 20
210.038217
 30
0.0
 10
21.270534
 20
211.398117
 30
0.0
  0
SPLINE
  5
110
100
AcDbEntity
  8
Layer_1
 62
7
100
AcDbSpline
 70
8
 71
3
 72
8
 73
4
 74
0
 40
0
 40
0
 40
0
 40
0
 40
1
 40
1
 40
1
 40
1
 10
21.270534
 20
211.398117
 30
0.0
 10
18.728997
 20
212.931797
 30
0.0
 10
18.032545
 20
216.351457
 30
0.0
 10
19.551957
 20
218.848726
 30
0.0
  0
SPLINE
  5
111
100
AcDbEntity
  8
Layer_1
 62
7
100
AcDbSpline
 70
8
 71
3
 72
8
 73
4
 74
0
 40
0
 40
0
 40
0
 40
0
 40
1
 40
1
 40
1
 40
1
 10
19.551957
 20
218.848726
 30
0.0
 10
21.254266
 20
221.646599
 30
0.0
 10
25.028815
 20
222.410114
 30
0.0
 10
27.780828
 20
220.723364
 30
0.0
  0
SPLINE
  5
112
100
AcDbEntity
  8
Layer_1
 62
7
100
AcDbSpline
 70
8
 71
3
 72
8
 73
4
 74
0
 40
0
 40
0
 40
0
 40
0
 40
1
 40
1
 40
1
 40
1
 10
27.780828
 20
220.723364
 30
0.0
 10
30.845937
 20
218.844714
 30
0.0
 10
31.679242
 20
214.699706
 30
0.0
 10
29.817420
 20
211.682034
 30
0.0
  0
SPLINE
  5
113
100
AcDbEntity
  8
Layer_1
 62
7
100
AcDbSpline
 70
8
 71
3
 72
8
 73
4
 74
0
 40
0
 40
0
 40
0
 40
0
 40
1
 40
1
 40
1
 40
1
 10
29.817420
 20
211.682034
 30
0.0
 10
27.754796
 20
208.338900
 30
0.0
 10
23.223921
 20
207.433107
 30
0.0
 10
19.929788
 20
209.477652
 30
0.0
  0
SPLINE
  5
114
100
AcDbEntity
  8
Layer_1
 62
7
100
AcDbSpline
 70
8
 71
3
 72
8
 73
4
 74
0
 40
0
 40
0
 40
0
 40
0
 40
1
 40
1
 40
1
 40
1
 10
19.929788
 20
209.477652
 30
0.0
 10
16.297943
 20
211.731801
 30
0.0
 10
15.316987
 20
216.663796
 30
0.0
 10
17.551825
 20
220.245091
 30
0.0
  0
SPLINE
  5
115
100
AcDbEntity
  8
Layer_1
 62
7
100
AcDbSpline
 70
8
 71
3
 72
8
 73
4
 74
0
 40
0
 40
0
 40
0
 40
0
 40
1
 40
1
 40
1
 40
1
 10
17.551825
 20
220.245091
 30
0.0
 10
20.004979
 20
224.176234
 30
0.0
 10
25.353206
 20
225.235003
 30
0.0
 10
29.232261
 20
222.802376
 30
0.0
  0
SPLINE
  5
116
100
AcDbEntity
  8
Layer_1
 62
7
100
AcDbSpline
 70
8
 71
3
 72
8
 73
4
 74
0
 40
0
 40
0
 40
0
 40
0
 40
1
 40
1
 40
1
 40
1
 10
29.232261
 20
222.802376
 30
0.0
 10
33.473198
 20
220.142806
 30
0.0
 10
34.612409
 20
214.363375
 30
0.0
 10
31.974566
 20
210.176052
 30
0.0
  0
SPLINE
  5
117
100
AcDbEntity
  8
Layer_1
 62
7
100
AcDbSpline
 70
8
 71
3
 72
8
 73
4
 74
0
 40
0
 40
0
 40
0
 40
0
 40
1
 40
1
 40
1
 40
1
 10
31.974566
 20
210.176052
 30
0.0
 10
29.101236
 20
205.614915
 30
0.0
 10
22.875757
 20
204.392656
 30
0.0
 10
18.369747
 20
207.243073
 30
0.0
  0
SPLINE
  5
118
100
AcDbEntity
  8
Layer_1
 62
7
100
AcDbSpline
 70
8
 71
3
 72
8
 73
4
 74
0
 40
0
 40
0
 40
0
 40
0
 40
1
 40
1
 40
1
 40
1
 10
18.369747
 20
207.243073
 30
0.0
 10
13.478088
 20
210.337446
 30
0.0
 10
12.170193
 20
217.023695
 30
0.0
 10
15.240482
 20
221.858723
 30
0.0
  0
SPLINE
  5
119
100
AcDbEntity
  8
Layer_1
 62
7
100
AcDbSpline
 70
8
 71
3
 72
8
 73
4
 74
0
 40
0
 40
0
 40
0
 40
0
 40
1
 40
1
 40
1
 40
1
 10
15.240482
 20
221.858723
 30
0.0
 10
18.563121
 20
227.091148
 30
0.0
 10
25.724743
 20
228.487246
 30
0.0
 10
30.899044
 20
225.189850
 30
0.0
  0
SPLINE
  5
11a
100
AcDbEntity
  8
Layer_1
 62
7
100
AcDbSpline
 70
8
 71
3
 72
8
 73
4
 74
0
 40
0
 40
0
 40
0
 40
0
 40
1
 40
1
 40
1
 40
1
 10
30.899044
 20
225.189850
 30
0.0
 10
36.482401
 20
221.631778
 30
0.0
 10
37.969249
 20
213.980290
 30
0.0
 10
34.437568
 20
208.456540
 30
0.0
  0
SPLINE
  5
11b
100
AcDbEntity
  8
Layer_1
 62
7
100
AcDbSpline
 70
8
 71
3
 72
8
 73
4
 74
0
 40
0
 40
0
 40
0
 40
0
 40
1
 40
1
 40
1
 40
1
 10
34.437568
 20
208.456540
 30
0.0
 10
30.636951
 20
202.512159
 30
0.0
 10
22.481210
 20
200.932029
 30
0.0
 10
16.597909
 20
204.705119
 30
0.0
  0
SPLINE
  5
11c
100
AcDbEntity
  8
Layer_1
 62
7
100
AcDbSpline
 70
8
 71
3
 72
8
 73
4
 74
0
 40
0
 40
0
 40
0
 40
0
 40
1
 40
1
 40
1
 40
1
 10
16.597909
 20
204.705119
 30
0.0
 10
10.282480
 20
208.755343
 30
0.0
 10
8.606554
 20
217.429620
 30
0.0
 10
12.628126
 20
223.682504
 30
0.0
  0
SPLINE
  5
11d
100
AcDbEntity
  8
Layer_1
 62
7
100
AcDbSpline
 70
8
 71
3
 72
8
 73
4
 74
0
 40
0
 40
0
 40
0
 40
0
 40
1
 40
1
 40
1
 40
1
 10
12.628126
 20
223.682504
 30
0.0
 10
16.934969
 20
230.378937
 30
0.0
 10
26.141967
 20
232.153156
 30
0.0
 10
32.774399
 20
227.876080
 30
0.0
  0
SPLINE
  5
11e
100
AcDbEntity
  8
Layer_1
 62
7
100
AcDbSpline
 70
8
 71
3
 72
8
 73
4
 74
0
 40
0
 40
0
 40
0
 40
0
 40
1
 40
1
 40
1
 40
1
 10
32.774399
 20
227.876080
 30
0.0
 10
38.304378
 20
224.309946
 30
0.0
 10
40.876732
 20
217.373632
 30
0.0
 10
39.195186
 20
211.040312
 30
0.0
  0
LWPOLYLINE
  5
11f
100
AcDbEntity
  8
Layer_1
 62
7
100
AcDbPolyline
 90
4
 70
1
 10
7.407773
 20
231.535965
 30
0.0
 10
42.896169
 20
231.535965
 30
0.0
 10
42.896169
 20
200.095997
 30
0.0
 10
7.407773
 20
200.095997
 30
0.0
  0
LWPOLYLINE
  5
120
100
AcDbEntity
  8
Layer_1
 62
7
100
AcDbPolyline
 90
18
 70
0
 10
46.600059
 20
200.104991
 30
0.0
 10
46.600059
 20
231.000002
 30
0.0
 10
52.230843
 20
231.000002
 30
0.0
 10
52.230843
 20
200.104991
 30
0.0
 10
56.492753
 20
200.104991
 30
0.0
 10
56.492753
 20
231.000002
 30
0.0
 10
61.160228
 20
231.000002
 30
0.0
 10
61.160228
 20
200.104991
 30
0.0
 10
65.754829
 20
200.104991
 30
0.0
 10
65.754829
 20
231.000002
 30
0.0
 10
68.492585
 20
231.000002
 30
0.0
 10
68.492585
 20
200.104991
 30
0.0
 10
70.317756
 20
200.104991
 30
0.0
 10
70.317756
 20
231.000002
 30
0.0
 10
71.271542
 20
231.000002
 30
0.0
 10
71.271542
 20
200.104991
 30
0.0
 10
71.924306
 20
200.104991
 30
0.0
 10
71.924306
 20
231.000002
 30
0.0
  0
ENDSEC
  0
SECTION
  2
OBJECTS
  0
DICTIONARY
  5
C
330
0
100
AcDbDictionary
  3
ACAD_GROUP
350
D
  3
ACAD_MLINESTYLE
350
17
  0
DICTIONARY
  5
D
330
C
100
AcDbDictionary
  0
DICTIONARY
  5
1A
330
C
100
AcDbDictionary
  0
DICTIONARY
  5
17
330
C
100
AcDbDictionary
  3
STANDARD
350
18
  0
DICTIONARY
  5
19
330
C
100
AcDbDictionary
  0
ENDSEC
  0
EOF
