<?xml version="1.0" encoding="utf-8"?>
<!-- Generator: Adobe Illustrator 24.1.3, SVG Export Plug-In . SVG Version: 6.00 Build 0)  -->
<svg version="1.1" id="logo_BRM_Lasers" xmlns="http://www.w3.org/2000/svg" xmlns:xlink="http://www.w3.org/1999/xlink" x="0px"
	 y="0px" viewBox="0 0 500 538" style="enable-background:new 0 0 500 538;" xml:space="preserve">
<style type="text/css">
	.st0{fill:#007AC3;}
	.st1{fill:#FFFFFF;}
</style>
<path id="Icon" class="st0" d="M285.84,0L285.84,0 M500,0H371.35L260.69,188.74L285.84,0H0v538h500V0"/>
<g id="BRM">
	<path class="st1" d="M91.31,443.43H20.7V316.57h72.5c27.39,0,43.5,7.33,43.5,26.03v11.55c0,16.13-9.67,21.08-27.12,23.83v1.47
		c21.48,3.3,28.73,11.37,28.73,23.47v12.83C138.3,439.03,117.63,443.43,91.31,443.43z M98.03,346.27c0-5.87-5.1-9.35-15.04-9.35
		H59.36v31.53h22.02c9.13,0,16.65-1.1,16.65-9.53V346.27z M98.03,399.43c0-7.15-4.83-10.08-15.84-10.08H59.36v33.92h22.82
		c10.47,0,15.84-2.75,15.84-10.82V399.43z"/>
	<path class="st1" d="M247.58,443.43l-32.22-45.47h-8.86v45.47h-39.74V316.57h71.96c38.66,0,48.33,14.12,48.33,31.17v19.43
		c0,13.57-6.98,29.33-31.42,29.33h-1.07l35.17,46.93H247.58z M246.78,348.28c0-8.07-2.95-11.55-14.5-11.55H206.5v41.8h25.78
		c11.55,0,14.5-3.67,14.5-11.73V348.28z"/>
	<polygon class="st1" points="444.94,443.43 444.94,360.93 446.28,342.6 444.4,342.6 438.76,362.77 415.94,417.03 380.76,417.03 
		356.06,360.57 352.03,342.6 350.15,342.6 352.03,362.58 352.03,443.43 317.66,443.43 317.66,316.57 371.9,316.57 397.95,382.57 
		399.02,388.25 399.56,388.25 400.63,382.57 426.68,316.57 479.3,316.57 479.3,443.43 	"/>
</g>
</svg>
