<svg width="56" height="50" xmlns="http://www.w3.org/2000/svg" xmlns:xlink="http://www.w3.org/1999/xlink" overflow="hidden"><defs><clipPath id="clip0"><rect x="0" y="0" width="56" height="50"/></clipPath></defs><g clip-path="url(#clip0)"><path d="M0 0C2.02727 1.15205 2.02727 3.03668 0 4.18873L-44.1136 29.2518C-46.1409 30.4038-47.7998 29.4384-47.7998 27.1068L-47.7998-22.9181C-47.7998-25.2497-46.1409-26.2154-44.1136-25.0634Z" fill="#FBC718" fill-rule="evenodd" transform="matrix(-1.83975e-16 -1.00151 -1 1.83697e-16 30.0392 1.82842)"/><path d="M0 0C0 0.681158-0.486038 1.33238-1.36936 1.83391L-45.4826 26.8976C-46.3666 27.3999-47.1855 27.4834-47.7878 27.1329-48.3904 26.7821-48.7218 26.0291-48.7218 25.0127L-48.7218-25.0127C-48.7218-26.0291-48.3904-26.7825-47.7878-27.1329-47.1855-27.4834-46.3666-27.3999-45.4826-26.8976L-1.36936-1.83427C-0.486391-1.33238 0-0.68151 0 0M-49.3202-25.0127-49.3202 25.0127C-49.3202 26.251-48.8828 27.1879-48.0889 27.6499-47.2947 28.112-46.2642 28.0296-45.1871 27.4178L-1.07351 2.35447C0.00457862 1.74164 0.598391 0.905511 0.598391 0 0.598391-0.905863 0.00457862-1.74164-1.07351-2.35447L-45.1871-27.4178C-46.2642-28.0296-47.2947-28.112-48.0889-27.6499-48.8828-27.1875-49.3202-26.251-49.3202-25.0127" fill="#231F20" transform="matrix(-1.83975e-16 -1.00151 -1 1.83697e-16 27.9456 0.605267)"/><path d="M0 0C1.01364 0.576202 1.01364 1.51869 0 2.09419L-43.3229 26.7085C-44.3366 27.2844-45.166 26.8015-45.166 25.6357L-45.166-23.5415C-45.166-24.7069-44.3366-25.1898-43.3229-24.614Z" fill="#231F20" fill-rule="evenodd" transform="matrix(-1.83975e-16 -1.00151 -1 1.83697e-16 28.9929 3.00907)"/><path d="M0 0-37.8888 21.7826-37.9201-21.8784Z" fill="#FBC718" fill-rule="evenodd" transform="matrix(-1.83975e-16 -1.00151 -1 1.83697e-16 27.8478 7.74618)"/><path d="M0 0-15.8984 5.54295-12.8832-1.24891-12.9138-1.24891-12.9748-1.21791-13.1269-1.18798-13.3097-1.15769-13.5231-1.12669-13.7665-1.06541-14.3755-0.943901-15.107-0.822743-15.5025-0.730466-16.3555-0.548378-16.812-0.456806-17.2389-0.395523-18.6089-0.121862-19.8885 0.152151-20.284 0.213082-20.6496 0.30395-21.0152 0.365585-21.3505 0.426516-21.6245 0.487095-21.8675 0.548378-22.1116 0.579372-22.2637 0.609309-22.3856 0.639598-22.4772 0.669888-22.5078 0.669888-20.589 2.10159-20.6496 2.0713-20.7408 2.04066-20.863 2.04066-21.1673 1.97973-21.3505 1.94873-21.7766 1.88886-22.5078 1.79693-23.0551 1.73635-23.3295 1.67507-24.6999 1.52292-25.4314 1.43135-25.6449 1.40071-26.0101 1.34083-26.1619 1.30984-26.4063 1.30984-26.4669 1.27955-26.5278 1.27955-26.4975 1.21827-25.8879 0.609309-25.5536 0.30395-24.0304-1.21791-23.6345-1.5835-22.934-2.28438-22.66-2.5281-22.4469-2.74083-22.3247-2.89369-22.2637-2.92398-22.2944-2.89369-22.2944-2.83311-22.3247-2.74083-22.3247-2.58868-22.3856-2.43653-22.4159-2.25374-22.4469-2.0403-22.5078-1.67542-22.5684-1.46164-22.599-1.2792-22.6293-1.12669-22.6293-0.974894-22.66-0.883322-22.66-0.791749-22.6293-0.791749-22.5078-0.822743-22.3247-0.913611-22.1116-0.974894-21.4413-1.21791-21.0152-1.37042-20.5584-1.52292-20.0709-1.67542-19.5532-1.85786-18.9749-2.0713-18.3958-2.25374-17.1772-2.6799-16.5376-2.89369-15.8984-3.13671-15.2891-3.35049-14.0102-3.77666-13.4312-3.98939-12.8529-4.17218-12.2742-4.38526-11.7561-4.56876-11.2384-4.72056-10.7816-4.87306-10.3861-5.02557-10.0201-5.14708-9.71584-5.26894-9.47176-5.32987-9.28932-5.42144-9.16781-5.45173-9.10617-5.45173-9.13682-5.45173-9.16781-5.39115-9.19775-5.26894-9.25903-5.14708-9.31961-4.99528-9.38054-4.78149-9.5024-4.56876-9.59362-4.32468-9.68519-4.05102-9.80706-3.77666-10.0511-3.1677-10.2029-2.83311-10.3251-2.49711-10.4773-2.16217-10.5985-1.82722-10.751-1.49193-10.8728-1.15769-10.9947-0.822743-11.1468-0.487095-11.3909 0.121862-11.5128 0.396227-11.604 0.669888-11.6952 0.914316-11.8784 1.34083-11.9389 1.49263-12.0002 1.61379-12.0305 1.70606-12.0611 1.76664-12.0611 1.79693-12.0305 1.76664-11.9389 1.73635-11.7561 1.64478-11.5431 1.52292-11.2687 1.40071-10.9644 1.21827-8.77158 0.121862-8.2542-0.152151-7.70582-0.426516-7.15779-0.730466-6.60942-1.00518-6.0304-1.2792-5.48237-1.5835-4.90335-1.85786-4.38632-2.16217-3.83759-2.43653-3.31985-2.71019-2.80212-2.95462-2.34496-3.19799-1.88851-3.41107-1.49228-3.6238-1.12705-3.80695-0.822039-3.98939-0.548378-4.11195-0.334944-4.23346-0.152503-4.32468-0.0609309-4.38526-0.0306415-4.38526Z" fill="#231F20" fill-rule="evenodd" transform="matrix(-1.83975e-16 -1.00151 -1 1.83697e-16 26.4381 15.7682)"/></g></svg>